<svg width="246" height="214" viewBox="0 0 246 214" fill="none" xmlns="http://www.w3.org/2000/svg">
<path d="M49.6394 76.1276L56.8099 64.9869C58.2931 62.6823 57.9689 59.5285 55.8535 57.805C53.4219 55.823 49.8698 56.4341 48.1993 59.031L40.8989 70.3717C39.8112 72.0619 40.2828 74.3233 41.9523 75.4229L44.6472 77.1977C46.3162 78.2968 48.5512 77.8178 49.6394 76.1276Z" fill="#FFC359"/>
<path d="M112.412 74.5086L192.569 38.3682L186.585 24.759C177.409 3.88801 153.243 -5.49018 132.609 3.81341L127.175 6.26297C106.54 15.5666 97.2519 40.028 106.428 60.8994L112.412 74.5086Z" fill="#FFB93D"/>
<path d="M117.53 42.3041C114.184 34.6955 117.577 25.7792 125.09 22.3916L145.85 13.032C149.602 11.3403 153.688 11.3441 157.242 12.7312C160.805 14.1135 163.841 16.8653 165.514 20.6696C165.625 20.9224 165.72 21.1695 165.816 21.4151C165.933 21.6532 166.05 21.8894 166.161 22.1426C169.506 29.7517 166.112 38.668 158.599 42.0556L137.841 51.4153C134.088 53.1069 130.001 53.1026 126.449 51.7156C122.884 50.3323 119.849 47.581 118.177 43.7767C118.065 43.5239 117.971 43.2778 117.874 43.0307C117.758 42.794 117.64 42.5569 117.53 42.3041Z" fill="#1F1F1F"/>
<path d="M214.212 89.5177C215.049 89.4056 215.842 89.2222 216.621 89.0088C218.263 88.5517 219.781 87.8765 221.21 87.0311C223.358 88.1582 225.751 88.8548 228.326 89.0948L228.319 89.0791C230.709 89.301 233.058 89.0563 235.238 88.43L235.495 88.3602L235.652 88.3169C235.828 88.4666 235.999 88.6092 236.182 88.7456C237.879 90.1226 239.846 91.2122 242.014 91.9554C244.165 92.6877 246.331 93.0203 248.458 92.9856C248.677 92.9875 248.892 92.9813 249.106 92.968C249.146 92.9675 249.202 92.9704 249.239 92.9628C250.64 94.9396 252.42 96.6901 254.569 98.0729C256.444 99.2965 258.455 100.146 260.514 100.637C260.727 100.687 260.94 100.737 261.161 100.775C261.253 100.798 261.36 100.823 261.447 100.838C262.355 103.119 263.694 105.233 265.472 107.105C267.15 108.874 269.089 110.242 271.158 111.222C271.284 111.293 271.404 111.349 271.524 111.405C271.541 111.507 271.555 111.629 271.583 111.726C271.685 112.421 271.838 113.112 272.015 113.792C272.445 115.364 273.101 116.917 273.957 118.397C274.697 119.675 275.556 120.825 276.516 121.857L309.984 106.767C309.879 105.569 309.672 104.381 309.345 103.202C308.914 101.603 308.261 100.058 307.414 98.5633C306.363 96.731 305.05 95.1444 303.549 93.8077C302.155 92.5603 300.583 91.5306 298.914 90.7456C298.812 90.7 298.703 90.6396 298.587 90.5907C298.57 90.4614 298.546 90.3441 298.518 90.2191C298.406 89.5282 298.267 88.8406 298.079 88.1654C297.24 85.1394 295.676 82.2945 293.37 79.8744C290.64 76.9867 287.271 75.1568 283.692 74.3722C283.457 74.3038 283.221 74.2639 282.982 74.2164L282.948 74.1404C282.226 72.3427 281.247 70.6421 280.012 69.1034C278.746 67.56 277.227 66.1853 275.464 65.0311C273.694 63.8893 271.803 63.0667 269.877 62.5625C267.967 62.0698 266.012 61.8716 264.078 61.9747C264.055 61.9847 264.026 61.9795 263.999 61.9823C263.884 61.8141 263.755 61.6435 263.637 61.4682C262.578 60.0522 261.307 58.7763 259.866 57.701C258.275 56.4726 256.443 55.5032 254.449 54.8157C250.728 53.5531 246.909 53.4951 243.375 54.426C243.268 54.4607 243.154 54.4835 243.048 54.5172L242.596 54.6394L242.591 54.6275C241.102 53.353 239.437 52.2958 237.603 51.5074C235.77 50.7196 233.784 50.2073 231.694 50.0173C229.299 49.8129 226.973 50.0486 224.815 50.663C223.176 51.1254 221.623 51.784 220.202 52.6455C218.461 51.7602 216.588 51.1287 214.627 50.7975C212.677 50.462 210.643 50.4278 208.571 50.741C207.734 50.856 206.939 51.0346 206.161 51.248C196.893 53.8805 190.783 63.1356 192.204 73.0113C192.324 73.841 192.5 74.645 192.71 75.4333C195.293 84.8144 204.446 90.9841 214.212 89.5177Z" fill="#FFCF7A"/>
<path d="M41.6659 63.8413L38.6487 50.9092C38.0246 48.2349 35.4109 46.3294 32.5354 46.7342C29.2287 47.1994 27.035 50.2653 27.7384 53.2789L30.8091 66.4434C31.2671 68.4054 33.3191 69.5929 35.3926 69.0963L38.7397 68.2933C40.8133 67.7962 42.1234 65.8028 41.6659 63.8413Z" fill="#FFC359"/>
<path d="M29.6463 66.3084L22.8039 54.9706C21.3882 52.6255 18.3189 51.6376 15.709 52.9268C12.7086 54.4098 11.5656 58.0127 13.1596 60.6547L20.1254 72.1968C21.1634 73.917 23.4796 74.3993 25.2979 73.2746L28.233 71.4589C30.0522 70.3346 30.6848 68.0285 29.6463 66.3084Z" fill="#FFC359"/>
<path d="M20.1763 73.9897L9.83196 65.809C7.69269 64.1174 4.47512 64.2837 2.47803 66.4187C0.18204 68.8725 0.362231 72.6516 2.77272 74.5576L13.3034 82.8856C14.873 84.1258 17.2093 83.7547 18.5218 82.055L20.6414 79.3122C21.9534 77.613 21.7455 75.2309 20.1763 73.9897Z" fill="#FFC359"/>
<path d="M28.8815 65.4113L21.0414 70.3422C15.0699 74.1005 13.2337 82.0417 16.9417 88.0817L21.3056 95.19L50.772 76.6527L46.409 69.5444C42.7001 63.5044 34.853 61.6535 28.8815 65.4113Z" fill="#FFCF7A"/>
<path d="M29.7877 70.2833L24.2793 73.7474C20.0838 76.388 18.7948 81.9671 21.3996 86.21L24.8382 92.0524L45.5392 79.0286L42.101 73.1872C39.4958 68.9438 33.9837 67.6442 29.7877 70.2833Z" fill="#FF7663"/>
<path d="M49.6794 75.7873L21.5653 93.475C19.9718 94.4767 19.4828 96.5951 20.4715 98.2055C21.4602 99.8159 23.5526 100.31 25.1452 99.3074L53.2601 81.6197C54.8523 80.618 55.3422 78.5002 54.3535 76.8902C53.3648 75.2794 51.2715 74.7857 49.6794 75.7873Z" fill="#FFB93D"/>
<path d="M120.533 103.689C119.719 103.918 118.957 104.206 118.213 104.524C116.652 105.21 115.237 106.085 113.939 107.125C111.658 106.303 109.19 105.941 106.61 106.065L106.616 106.076C104.22 106.189 101.925 106.756 99.8492 107.676L99.607 107.784L99.4559 107.849C99.2593 107.721 99.0698 107.603 98.8694 107.491C97.0028 106.364 94.909 105.559 92.6581 105.12C90.4301 104.695 88.2388 104.663 86.1361 104.992C85.9207 105.024 85.7053 105.055 85.4961 105.097C85.4585 105.107 85.4027 105.112 85.3642 105.121C83.7092 103.357 81.7093 101.869 79.395 100.801C77.3721 99.8482 75.2666 99.2879 73.1597 99.0836C72.9387 99.0594 72.7252 99.0461 72.5 99.0385C72.4043 99.0251 72.2968 99.0176 72.2077 99.0147C70.9994 96.8807 69.3871 94.9704 67.3703 93.3591C65.4684 91.8399 63.3662 90.7575 61.1819 90.0689C61.0487 90.0195 60.9215 89.9791 60.7948 89.9406C60.7634 89.8423 60.7361 89.7254 60.6944 89.6332C60.4978 88.9546 60.2528 88.2932 59.9863 87.6436C59.3463 86.1463 58.4866 84.6984 57.4402 83.3527C56.5336 82.1866 55.5285 81.1707 54.4399 80.2825L23.3218 99.8596C23.5846 101.029 23.9524 102.179 24.4358 103.3C25.0781 104.825 25.9317 106.263 26.9734 107.626C28.2624 109.294 29.7771 110.687 31.4467 111.804C32.997 112.847 34.6938 113.649 36.4502 114.192C36.56 114.227 36.6759 114.272 36.7965 114.301C36.8298 114.428 36.8678 114.538 36.9124 114.658C37.1193 115.33 37.3469 115.988 37.6237 116.63C38.8668 119.515 40.7996 122.114 43.4132 124.196C46.505 126.674 50.0933 128.023 53.7459 128.308C53.9838 128.336 54.2259 128.348 54.4676 128.359L54.5136 128.434C55.4732 130.116 56.6716 131.663 58.1051 133.017C59.5663 134.369 61.2551 135.518 63.1565 136.416C65.0677 137.305 67.0488 137.855 69.0295 138.093C70.9872 138.317 72.9505 138.239 74.8537 137.874C74.8753 137.86 74.903 137.858 74.9302 137.855C75.0672 138.006 75.215 138.151 75.3586 138.313C76.5979 139.566 78.0295 140.655 79.6029 141.521C81.3438 142.514 83.2888 143.22 85.3604 143.632C89.2157 144.365 93.0058 143.891 96.3848 142.487C96.4838 142.433 96.5922 142.393 96.6954 142.347L97.1252 142.162L97.1337 142.177C98.7788 143.229 100.573 144.049 102.495 144.573C104.42 145.105 106.454 145.333 108.553 145.237C110.953 145.106 113.224 144.549 115.279 143.641C116.84 142.956 118.291 142.091 119.584 141.042C121.426 141.676 123.369 142.043 125.356 142.1C127.33 142.161 129.353 141.917 131.361 141.313C132.174 141.085 132.94 140.803 133.681 140.479C142.508 136.591 147.311 126.582 144.566 116.993C144.337 116.19 144.055 115.42 143.74 114.666C139.913 105.732 130.012 100.886 120.533 103.689Z" fill="#FFCF7A"/>
<path d="M60.7943 89.9406C60.7634 89.8418 60.7357 89.7254 60.6939 89.6337C54.4052 100.047 42.0834 109.98 36.4497 114.193C36.559 114.227 36.6754 114.272 36.7955 114.302C36.8293 114.429 36.8678 114.538 36.9124 114.659C42.6268 110.411 54.8585 100.593 61.181 90.0694C61.0477 90.0195 60.9206 89.9801 60.7943 89.9406Z" fill="#FFB93D"/>
<path d="M73.159 99.0841C72.9385 99.0594 72.724 99.0466 72.4997 99.0385C69.2413 109.965 59.4436 121.977 53.7461 128.308C53.9831 128.337 54.2252 128.348 54.4669 128.359L54.5128 128.435C60.3333 121.967 69.9851 110.076 73.159 99.0841Z" fill="#FFB93D"/>
<path d="M86.1354 104.992C85.9201 105.024 85.7047 105.055 85.4954 105.098C85.3002 116.086 79.0171 129.88 74.8535 137.874C74.8742 137.86 74.9018 137.857 74.9295 137.855C75.0675 138.006 75.2148 138.151 75.3579 138.313C79.5961 130.273 86.0228 116.285 86.1354 104.992Z" fill="#FFB93D"/>
<path d="M99.607 107.784L99.4564 107.849C99.2598 107.721 99.0693 107.603 98.8694 107.491C101.494 118.294 98.5691 133.612 96.3843 142.487C96.4838 142.433 96.5917 142.393 96.6949 142.347L97.1252 142.162C99.3151 133.321 102.079 118.578 99.607 107.784Z" fill="#FFB93D"/>
<path d="M210.401 214.456L200.562 192.077C199.981 190.756 199.218 189.571 198.308 188.545C194.534 184.279 188.32 182.753 182.864 185.212L174.409 189.024C168.955 191.484 165.916 197.183 166.522 202.877C166.666 204.248 167.024 205.615 167.605 206.937L177.444 229.315L210.401 214.456Z" fill="#FFCF7A"/>
<path d="M138.89 141.626L148.726 163.997C149.31 165.325 150.074 166.51 150.983 167.536C154.757 171.802 160.972 173.329 166.427 170.869L174.882 167.057C180.337 164.597 183.375 158.899 182.77 153.205C182.626 151.833 182.267 150.466 181.682 149.138L171.847 126.767L138.89 141.626Z" fill="#FFCF7A"/>
<path d="M180.254 156.408C185.271 154.146 187.049 147.844 183.97 143.247L176.087 131.472C175.506 130.151 174.721 128.976 173.769 127.969C169.82 123.782 163.097 122.484 157.042 125.215L147.658 129.445C141.603 132.176 138.056 138.103 138.487 143.877C138.589 145.267 138.926 146.644 139.507 147.965L142.872 161.777C144.187 167.169 150.001 170.048 155.016 167.787L180.254 156.408Z" fill="#FFB93D"/>
<path d="M158.408 175.711L158.442 175.787C158.905 176.842 159.896 177.484 160.961 177.544C161.197 177.556 161.45 177.543 161.699 177.486C161.811 177.462 161.924 177.439 162.041 177.396C162.139 177.369 162.23 177.329 162.321 177.288L182.34 168.262C182.431 168.22 182.523 168.179 182.607 168.123C182.717 168.063 182.81 167.995 182.903 167.926C183.11 167.777 183.289 167.595 183.439 167.409C184.107 166.568 184.299 165.392 183.835 164.338L183.802 164.262C183.144 162.765 181.403 162.095 179.922 162.762L159.903 171.788C158.423 172.456 157.75 174.214 158.408 175.711Z" fill="#FFB93D"/>
<path d="M160.762 181.066L160.799 181.149C161.269 182.219 162.305 182.869 163.396 182.898C163.614 182.9 163.828 182.887 164.053 182.84C164.255 182.804 164.47 182.734 164.675 182.642L184.694 173.615C184.899 173.523 185.094 173.408 185.257 173.28C185.441 173.142 185.593 172.991 185.738 172.824C186.447 171.984 186.663 170.769 186.193 169.7L186.156 169.616C185.625 168.41 184.393 167.748 183.165 167.871C183.075 167.885 182.985 167.898 182.902 167.926C182.7 167.963 182.485 168.032 182.28 168.124L162.26 177.15C162.055 177.243 161.86 177.358 161.699 177.486C161.622 177.53 161.552 177.588 161.483 177.647C160.57 178.489 160.231 179.859 160.762 181.066Z" fill="#FFB93D"/>
<path d="M163.116 186.419L163.147 186.488C163.64 187.611 164.732 188.263 165.858 188.249C166.048 188.246 166.235 188.235 166.418 188.189C166.62 188.153 166.825 188.088 167.029 187.995L187.049 178.969C187.254 178.877 187.437 178.767 187.6 178.639C187.757 178.531 187.89 178.398 188.019 178.257C188.783 177.419 189.034 176.161 188.541 175.039L188.51 174.97C187.997 173.801 186.82 173.142 185.627 173.223C185.512 173.238 185.381 173.251 185.257 173.28C185.054 173.316 184.84 173.385 184.635 173.478L164.615 182.504C164.41 182.596 164.215 182.712 164.053 182.84C163.949 182.914 163.852 183.004 163.763 183.081C162.906 183.925 162.603 185.251 163.116 186.419Z" fill="#FFB93D"/>
<path d="M165.473 191.781L165.503 191.851C166.161 193.347 167.906 194.025 169.386 193.357L189.406 184.331C190.886 183.664 191.555 181.897 190.897 180.401L190.867 180.332C190.363 179.186 189.247 178.537 188.089 178.574C187.925 178.574 187.757 178.595 187.599 178.639C187.396 178.675 187.193 178.74 186.988 178.832L166.968 187.859C166.763 187.951 166.579 188.061 166.417 188.189C166.28 188.279 166.152 188.391 166.042 188.514C165.241 189.361 164.969 190.636 165.473 191.781Z" fill="#FFB93D"/>
<path d="M261.489 191.422L251.65 169.044C251.069 167.722 250.305 166.538 249.395 165.511C245.622 161.246 239.407 159.719 233.952 162.178L225.497 165.991C220.041 168.45 217.004 174.149 217.608 179.843C217.753 181.215 218.112 182.581 218.693 183.903L228.532 206.281L261.489 191.422Z" fill="#FFCF7A"/>
<path d="M189.979 118.592L199.814 140.963C200.398 142.292 201.161 143.477 202.071 144.503C205.846 148.768 212.06 150.295 217.515 147.835L225.97 144.023C231.425 141.564 234.463 135.865 233.858 130.171C233.714 128.8 233.355 127.433 232.771 126.104L222.935 103.733L189.979 118.592Z" fill="#FFCF7A"/>
<path d="M231.344 133.373C236.359 131.112 238.137 124.81 235.058 120.214L227.176 108.438C226.595 107.117 225.81 105.942 224.857 104.935C220.909 100.748 214.186 99.4504 208.13 102.181L198.746 106.412C192.691 109.142 189.145 115.07 189.576 120.842C189.678 122.233 190.015 123.61 190.595 124.931L193.962 138.743C195.275 144.136 201.09 147.014 206.105 144.752L231.344 133.373Z" fill="#FFB93D"/>
<path d="M209.504 152.674L209.538 152.75C210.002 153.804 210.982 154.451 212.045 154.512C212.283 154.524 212.536 154.51 212.783 154.454C212.897 154.43 213.009 154.406 213.127 154.363C213.224 154.337 213.315 154.296 213.406 154.255L233.438 145.224C233.528 145.183 233.62 145.142 233.704 145.085C233.814 145.026 233.907 144.957 233.999 144.888C234.207 144.74 234.386 144.558 234.536 144.372C235.204 143.531 235.385 142.36 234.921 141.306L234.888 141.229C234.23 139.733 232.5 139.057 231.02 139.724L210.988 148.756C209.508 149.423 208.847 151.177 209.504 152.674Z" fill="#FFB93D"/>
<path d="M211.857 158.028L211.895 158.112C212.365 159.181 213.39 159.836 214.481 159.865C214.7 159.867 214.912 159.854 215.137 159.808C215.34 159.771 215.554 159.701 215.759 159.609L235.791 150.577C235.996 150.485 236.191 150.37 236.352 150.242C236.537 150.104 236.69 149.952 236.835 149.787C237.542 148.946 237.748 147.736 237.278 146.667L237.241 146.583C236.71 145.377 235.489 144.71 234.261 144.833C234.171 144.847 234.081 144.86 233.999 144.888C233.797 144.924 233.581 144.994 233.376 145.086L213.344 154.118C213.14 154.21 212.946 154.325 212.783 154.454C212.707 154.497 212.637 154.556 212.567 154.614C211.655 155.455 211.327 156.821 211.857 158.028Z" fill="#FFB93D"/>
<path d="M214.212 163.382L214.242 163.451C214.736 164.574 215.816 165.23 216.942 165.216C217.132 165.213 217.319 165.203 217.503 165.156C217.705 165.12 217.909 165.056 218.113 164.963L238.145 155.932C238.35 155.839 238.533 155.73 238.695 155.601C238.853 155.494 238.985 155.361 239.114 155.22C239.878 154.382 240.119 153.129 239.625 152.007L239.595 151.937C239.081 150.769 237.916 150.105 236.723 150.185C236.607 150.2 236.477 150.214 236.353 150.242C236.151 150.278 235.935 150.348 235.731 150.44L215.699 159.472C215.494 159.564 215.3 159.679 215.137 159.808C215.034 159.882 214.936 159.971 214.848 160.048C213.991 160.891 213.698 162.213 214.212 163.382Z" fill="#FFB93D"/>
<path d="M216.57 168.744L216.6 168.813C217.258 170.31 218.991 170.992 220.471 170.325L240.503 161.294C241.983 160.626 242.641 158.865 241.983 157.369L241.953 157.3C241.449 156.153 240.342 155.5 239.186 155.536C239.022 155.537 238.855 155.558 238.695 155.601C238.493 155.638 238.29 155.702 238.085 155.794L218.054 164.826C217.849 164.918 217.666 165.028 217.503 165.156C217.365 165.246 217.238 165.359 217.128 165.482C216.326 166.328 216.066 167.598 216.57 168.744Z" fill="#FFB93D"/>
<path d="M129.872 142.809L230.324 97.5188C234.841 95.4822 236.875 90.1269 234.866 85.5595L221.638 55.4724C219.63 50.9035 214.338 48.8502 209.821 50.8869L109.369 96.1774C104.853 98.214 102.819 103.569 104.828 108.139L118.056 138.225C120.064 142.793 125.355 144.846 129.872 142.809Z" fill="#FFB93D"/>
<path d="M110.66 101.905L126.533 138.01C128.562 142.623 132.158 146.043 136.387 147.926C138.462 148.839 140.834 148.721 142.9 147.79L225.251 110.66C227.317 109.729 228.991 108.023 229.71 105.85C231.172 101.401 231.053 96.4126 229.025 91.7991L213.152 55.6948C208.822 45.8476 197.433 41.4407 187.713 45.8228L120.438 76.1551C110.717 80.5382 106.33 92.0576 110.66 101.905Z" fill="#FFCF7A"/>
<path d="M115.328 79.7494L194.464 44.0699C197.259 42.8092 198.518 39.4953 197.274 36.667C196.031 33.8392 192.757 32.5695 189.961 33.8297L110.826 69.5092C108.03 70.7699 106.772 74.0833 108.015 76.9112C109.258 79.7394 112.532 81.0101 115.328 79.7494Z" fill="#FF7663"/>
<path d="M224.043 212.863L226.93 219.432L271.114 199.51L268.226 192.942C267.528 191.353 266.581 189.913 265.43 188.72C260.662 183.65 252.544 182.093 245.227 185.392L233.892 190.503C226.575 193.802 222.298 200.947 222.815 207.934C222.934 209.592 223.344 211.274 224.043 212.863Z" fill="#FFB93D"/>
<path d="M200.629 61.5252C202.881 60.5097 203.895 57.8397 202.893 55.5612C201.892 53.2827 199.253 52.2592 197.001 53.2742C194.749 54.2901 193.734 56.9606 194.736 59.2391C195.737 61.5176 198.376 62.5407 200.629 61.5252Z" fill="#83C446"/>
<path d="M188.013 67.2136C190.266 66.1977 191.28 63.5281 190.278 61.2496C189.276 58.9711 186.638 57.9471 184.385 58.963C182.133 59.9785 181.118 62.649 182.12 64.9275C183.122 67.206 185.76 68.2291 188.013 67.2136Z" fill="#24A3DE"/>
<path d="M175.398 72.9006C177.651 71.8856 178.665 69.2156 177.663 66.9371C176.661 64.6586 174.023 63.6346 171.771 64.65C169.517 65.666 168.504 68.3365 169.505 70.615C170.507 72.8935 173.145 73.917 175.398 72.9006Z" fill="#FF7663"/>
<path d="M144.537 38.0593C146.05 37.3769 146.73 35.5846 146.058 34.0554C145.385 32.5253 143.615 31.8382 142.102 32.5206C140.59 33.2025 139.908 34.9944 140.581 36.5245C141.253 38.0536 143.025 38.7412 144.537 38.0593Z" fill="#FF7663"/>
<path d="M148.346 28.311C149.721 31.4396 153.356 32.8508 156.449 31.4562C159.542 30.062 160.94 26.3813 159.565 23.2527C158.189 20.1245 154.553 18.7137 151.46 20.1079C148.367 21.5026 146.97 25.1828 148.346 28.311ZM146.067 29.3383C144.133 24.9386 146.099 19.7653 150.447 17.8047C154.797 15.8436 159.908 17.8265 161.842 22.2258C163.777 26.6255 161.812 31.7983 157.462 33.7594C153.114 35.72 148.002 33.738 146.067 29.3383Z" fill="#24A3DE"/>
<path d="M123.403 39.5571C124.778 42.6857 128.415 44.0965 131.508 42.7019C134.601 41.3077 135.999 37.6269 134.624 34.4983C133.248 31.3702 129.612 29.9594 126.519 31.3536C123.425 32.7482 122.028 36.429 123.403 39.5571ZM121.126 40.584C119.192 36.1843 121.157 31.0114 125.506 29.0504C129.856 27.0893 134.967 29.0722 136.901 33.4714C138.835 37.8712 136.87 43.044 132.521 45.0051C128.172 46.9661 123.061 44.9837 121.126 40.584Z" fill="#24A3DE"/>
<path d="M212.785 154.453C212.708 154.497 212.639 154.555 212.569 154.614L234.262 144.834C234.172 144.847 234.083 144.86 233.999 144.888C234.207 144.74 234.386 144.558 234.537 144.371L212.046 154.512C212.284 154.523 212.536 154.51 212.785 154.453Z" fill="#FFCF7A"/>
<path d="M161.699 177.486C161.623 177.53 161.553 177.588 161.483 177.647L183.165 167.872C183.076 167.884 182.986 167.898 182.903 167.926C183.11 167.777 183.29 167.596 183.439 167.409L160.961 177.544C161.198 177.556 161.451 177.543 161.699 177.486Z" fill="#FFCF7A"/>
<path d="M215.138 159.807C215.035 159.882 214.937 159.971 214.848 160.048L236.724 150.185C236.608 150.2 236.477 150.214 236.353 150.242C236.538 150.103 236.69 149.953 236.835 149.786L214.481 159.865C214.7 159.867 214.913 159.854 215.138 159.807Z" fill="#FFCF7A"/>
<path d="M164.053 182.84C163.949 182.914 163.853 183.003 163.764 183.08L185.628 173.223C185.512 173.238 185.381 173.252 185.256 173.28C185.442 173.141 185.594 172.991 185.74 172.824L163.396 182.898C163.616 182.9 163.829 182.886 164.053 182.84Z" fill="#FFCF7A"/>
<path d="M217.503 165.156C217.366 165.246 217.238 165.358 217.127 165.481L239.186 155.536C239.022 155.537 238.855 155.557 238.696 155.601C238.853 155.493 238.986 155.36 239.115 155.22L216.943 165.216C217.133 165.213 217.32 165.202 217.503 165.156Z" fill="#FFCF7A"/>
<path d="M166.419 188.188C166.281 188.279 166.152 188.391 166.042 188.513L188.089 178.573C187.925 178.574 187.757 178.595 187.599 178.639C187.756 178.532 187.889 178.399 188.018 178.257L165.858 188.249C166.048 188.246 166.234 188.235 166.419 188.188Z" fill="#FFCF7A"/>
<path d="M269.237 195.241L225.053 215.162L226.93 219.431L271.114 199.51L269.237 195.241Z" fill="#FF7663"/>
<path d="M161.038 128.959L161.478 129.96C162.717 132.778 164.468 135.174 166.592 137.108C172.594 142.629 181.498 144.362 189.399 140.799C197.287 137.243 201.974 129.383 201.938 121.171C201.94 118.279 201.354 115.359 200.115 112.54L199.675 111.539L161.038 128.959Z" fill="#FFCF7A"/>
<path d="M122.094 127.912L126.533 138.009C128.561 142.623 132.158 146.044 136.386 147.926C138.462 148.839 140.833 148.721 142.899 147.79L166.591 137.108C172.593 142.629 181.498 144.362 189.4 140.799C197.287 137.243 201.973 129.383 201.938 121.171L225.251 110.66C227.317 109.729 228.99 108.023 229.71 105.85C231.171 101.402 231.053 96.4122 229.025 91.7991L224.586 81.702L122.094 127.912Z" fill="#FFDFA6"/>
</svg>
