<svg width="1543" height="766" viewBox="0 0 1543 766" fill="none" xmlns="http://www.w3.org/2000/svg">
<path fill-rule="evenodd" clip-rule="evenodd" d="M28.5127 0C12.7726 0 0.0126953 12.7599 0.0126953 28.5V737.5C0.0126953 753.24 12.7726 766 28.5127 766H1466.65C1482.39 766 1495.15 753.24 1495.15 737.5V638C1495.15 622.26 1482.39 609.5 1466.65 609.5H1439.53C1425.44 609.5 1414.03 598.083 1414.03 584V459.5C1414.03 445.417 1425.44 434 1439.53 434H1514.46C1530.2 434 1542.96 421.24 1542.96 405.5V142.5C1542.96 126.76 1530.2 114 1514.46 114H1390.78C1390.68 115.065 1390.55 116.064 1390.4 117H1514.46C1528.54 117 1539.96 128.417 1539.96 142.5V405.5C1539.96 419.583 1528.54 431 1514.46 431H1439.53C1423.79 431 1411.03 443.76 1411.03 459.5V584C1411.03 599.74 1423.79 612.5 1439.53 612.5H1466.65C1480.74 612.5 1492.15 623.917 1492.15 638V737.5C1492.15 751.583 1480.74 763 1466.65 763H28.5127C14.4295 763 3.0127 751.583 3.0127 737.5V28.5C3.0127 14.4167 14.4294 3 28.5127 3H811.366C825.45 3 836.866 14.4167 836.866 28.5V88.5C836.866 104.24 849.626 117 865.366 117H953.086C953.027 115.98 953 114.978 953 114H865.366C851.283 114 839.866 102.583 839.866 88.5V28.5C839.866 12.7599 827.107 0 811.366 0H28.5127Z" fill="#D9D9D9"/>
</svg>
