<svg width="78" height="78" viewBox="0 0 78 78" fill="none" xmlns="http://www.w3.org/2000/svg">
<path d="M51.7588 2.98765C52.167 2.75738 52.6837 2.94834 52.8441 3.38838L56.047 12.1949C56.162 12.5114 56.4726 12.7139 56.8088 12.692L66.1596 12.0806C66.6268 12.0501 67.0095 12.4465 66.9631 12.9124L66.0281 22.2366C65.9943 22.5718 66.1858 22.8889 66.4986 23.0149L75.1891 26.5213C75.623 26.6966 75.7957 27.2198 75.5514 27.6194L70.6636 35.6145C70.4883 35.9019 70.5234 36.2707 70.7502 36.5198L77.0583 43.4495C77.3732 43.7959 77.3021 44.3424 76.909 44.5962L69.0362 49.6789C68.7528 49.8616 68.6244 50.2092 68.7204 50.5321L71.3976 59.5124C71.5316 59.9611 71.2298 60.4224 70.7651 60.4805L61.4669 61.6443C61.133 61.6859 60.8663 61.9431 60.8131 62.2761L59.3283 71.5283C59.2541 71.9905 58.7824 72.2761 58.3385 72.1264L49.4556 69.1403C49.1367 69.0328 48.785 69.1491 48.5923 69.4256L43.2401 77.1181C42.9725 77.5021 42.4239 77.555 42.0892 77.2273L35.3816 70.6829C35.1412 70.4477 34.7738 70.4002 34.4799 70.5652L26.3203 75.1733C25.913 75.4039 25.3954 75.2126 25.2358 74.7731L22.0322 65.9663C21.9171 65.6497 21.6074 65.4472 21.2711 65.4693L11.9196 66.0808C11.4523 66.1109 11.0697 65.7148 11.1168 65.2488L12.0511 55.9247C12.0848 55.5895 11.8934 55.2724 11.5813 55.1463L2.89086 51.6399C2.45616 51.4647 2.28343 50.9415 2.52777 50.5419L7.41557 42.5468C7.59171 42.2594 7.55657 41.8905 7.32975 41.6414L1.0216 34.7116C0.706032 34.3654 0.777042 33.819 1.17089 33.5649L9.04377 28.4824C9.32636 28.2997 9.45482 27.9521 9.35881 27.6293L6.68235 18.6488C6.54833 18.2 6.84936 17.7386 7.31404 17.6804L16.6123 16.5171C16.9469 16.4753 17.2136 16.2178 17.2668 15.8852L18.7516 6.63266C18.8258 6.17032 19.2976 5.88524 19.7414 6.03444L28.6235 9.02078C28.9425 9.12818 29.2948 9.01177 29.4868 8.73533L34.8392 1.0433C35.1067 0.658874 35.6553 0.606668 35.9907 0.933732L42.6975 7.47821C42.9387 7.71348 43.3062 7.76132 43.5992 7.5957L51.7588 2.98765Z" fill="#D571FF"/>
</svg>
