<svg width="81" height="81" viewBox="0 0 81 81" fill="none" xmlns="http://www.w3.org/2000/svg">
<path d="M44.6236 80.3776C45.2039 80.9162 46.1293 80.8051 46.5656 80.1444L51.484 72.6899C51.7985 72.214 52.3876 72.0033 52.9325 72.1715L61.4657 74.8081C62.2219 75.0416 63.0068 74.5404 63.1131 73.7562L64.3104 64.9053C64.3877 64.341 64.8266 63.8945 65.3905 63.8097L74.2224 62.4834C75.0059 62.3651 75.496 61.5731 75.2504 60.82L72.4892 52.3266C72.3133 51.7847 72.5161 51.1913 72.9872 50.8708L80.3686 45.844C81.0231 45.3978 81.1203 44.4716 80.5731 43.8987L74.4007 37.4446C74.0068 37.0326 73.9321 36.411 74.2173 35.9175L78.6865 28.1856C79.0825 27.4995 78.7687 26.6226 78.0272 26.3441L69.6657 23.2075C69.132 23.0077 68.7946 22.4792 68.8372 21.911L69.5093 13.0054C69.5696 12.2156 68.906 11.562 68.1167 11.6326L59.2219 12.4347C58.654 12.4858 58.1218 12.1559 57.9132 11.626L54.6546 3.31015C54.3657 2.57334 53.4845 2.27223 52.805 2.67813L45.1386 7.25976C44.6489 7.55222 44.0267 7.48692 43.6085 7.09901L37.0652 1.02073C36.4848 0.482075 35.5595 0.593181 35.1232 1.25391L30.2048 8.7084C29.8903 9.18429 29.3012 9.39503 28.7562 9.2268L20.2231 6.59026C19.4668 6.35675 18.682 6.85789 18.5757 7.64215L17.3783 16.493C17.301 17.0573 16.8621 17.5038 16.2982 17.5886L7.46637 18.9149C6.68288 19.0332 6.19381 19.8251 6.43835 20.5784L9.19956 29.0717C9.37542 29.6136 9.17272 30.207 8.70256 30.5274L1.32019 35.5543C0.665715 36.0005 0.568441 36.9267 1.11564 37.4996L7.28808 43.9538C7.682 44.3657 7.75663 44.9873 7.47143 45.4808L3.00232 53.2127C2.60629 53.8988 2.92006 54.7757 3.66156 55.0543L12.0231 58.1908C12.5567 58.3906 12.8941 58.9192 12.8516 59.4873L12.1795 68.3929C12.1192 69.1827 12.7828 69.8363 13.572 69.7657L22.4669 68.9636C23.0348 68.9125 23.5669 69.2424 23.7756 69.7723L27.0342 78.0882C27.3231 78.825 28.2043 79.1261 28.8837 78.7202L36.5502 74.1385C37.0398 73.8461 37.6621 73.9114 38.0803 74.2993L44.6236 80.3776Z" fill="#F4F4F4"/>
</svg>
