<svg width="103" height="102" viewBox="0 0 103 102" fill="none" xmlns="http://www.w3.org/2000/svg">
<path d="M57.8163 0.588335C58.2787 0.178186 58.9991 0.281236 59.3268 0.804797L65.9014 11.279C66.138 11.6555 66.5941 11.8308 67.0217 11.7093L78.9165 8.32858C79.5116 8.15954 80.1152 8.56487 80.1839 9.17896L81.5628 21.4683C81.6118 21.9101 81.9476 22.266 82.3848 22.3422L94.5689 24.4574C95.1778 24.5631 95.5462 25.1902 95.3423 25.7733L91.2514 37.4437C91.1043 37.8632 91.252 38.3295 91.6134 38.588L101.674 45.7802C102.176 46.1397 102.236 46.8644 101.799 47.3011L93.0503 56.041C92.7355 56.3552 92.6657 56.8393 92.8797 57.2291L98.8229 68.074C99.1196 68.6155 98.8587 69.2945 98.2758 69.4984L86.6008 73.5773C86.1813 73.7234 85.9088 74.1298 85.9318 74.5732L86.5807 86.9229C86.6136 87.5404 86.0841 88.0381 85.4704 87.9687L73.182 86.5778C72.7399 86.5281 72.3185 86.7761 72.1471 87.1855L67.3741 98.5938C67.1353 99.1634 66.4416 99.3836 65.9186 99.0546L55.4509 92.4696C55.075 92.2327 54.5874 92.2731 54.2551 92.5678L45.0046 100.775C44.5422 101.185 43.8228 101.082 43.494 100.559L36.9205 90.0847C36.6839 89.7082 36.2267 89.5324 35.7992 89.6542L23.9043 93.0344C23.3102 93.2034 22.7057 92.7986 22.637 92.1844L21.2591 79.895C21.209 79.4529 20.8742 79.0972 20.436 79.0209L8.25196 76.9064C7.64296 76.8002 7.27454 76.1727 7.47955 75.5901L11.5695 63.9196C11.7165 63.5001 11.5688 63.0339 11.2074 62.7753L1.14731 55.5832C0.644871 55.2237 0.585041 54.4989 1.02209 54.0621L9.77158 45.3223C10.0864 45.008 10.1552 44.524 9.94116 44.1343L3.99893 33.2894C3.7022 32.7474 3.96208 32.0686 4.54594 31.8648L16.22 27.7865C16.6395 27.6399 16.9121 27.2338 16.889 26.7899L16.2402 14.4405C16.2074 13.8234 16.7367 13.3249 17.3513 13.3944L29.6388 14.7853C30.0809 14.8353 30.5024 14.5877 30.6738 14.1776L35.4478 2.76953C35.6865 2.1995 36.3793 1.98015 36.9023 2.30915L47.3699 8.89382C47.7468 9.13047 48.2335 9.09047 48.5667 8.79534L57.8163 0.588335Z" fill="#FFB53D"/>
</svg>
